%TF.GenerationSoftware,KiCad,Pcbnew,(5.1.6)-1*%
%TF.CreationDate,2022-01-09T20:52:29+09:00*%
%TF.ProjectId,kicad_exam01,6b696361-645f-4657-9861-6d30312e6b69,rev?*%
%TF.SameCoordinates,Original*%
%TF.FileFunction,Legend,Top*%
%TF.FilePolarity,Positive*%
%FSLAX46Y46*%
G04 Gerber Fmt 4.6, Leading zero omitted, Abs format (unit mm)*
G04 Created by KiCad (PCBNEW (5.1.6)-1) date 2022-01-09 20:52:29*
%MOMM*%
%LPD*%
G01*
G04 APERTURE LIST*
%ADD10C,0.120000*%
%ADD11C,0.150000*%
G04 APERTURE END LIST*
D10*
%TO.C,D1*%
X119944200Y-113593200D02*
X119944200Y-116683200D01*
X125004200Y-115138200D02*
G75*
G03*
X125004200Y-115138200I-2500000J0D01*
G01*
X125494200Y-115138662D02*
G75*
G03*
X119944200Y-113593370I-2990000J462D01*
G01*
X125494200Y-115137738D02*
G75*
G02*
X119944200Y-116683030I-2990000J-462D01*
G01*
%TO.C,J1*%
X152647200Y-116198200D02*
X151587200Y-116198200D01*
X152647200Y-115138200D02*
X152647200Y-116198200D01*
X152647200Y-114138200D02*
X150527200Y-114138200D01*
X150527200Y-114138200D02*
X150527200Y-112078200D01*
X152647200Y-114138200D02*
X152647200Y-112078200D01*
X152647200Y-112078200D02*
X150527200Y-112078200D01*
%TO.C,R1*%
X135135800Y-96799400D02*
X135025800Y-96799400D01*
X122775800Y-96799400D02*
X122885800Y-96799400D01*
X135025800Y-94429400D02*
X122885800Y-94429400D01*
X135025800Y-99169400D02*
X135025800Y-94429400D01*
X122885800Y-99169400D02*
X135025800Y-99169400D01*
X122885800Y-94429400D02*
X122885800Y-99169400D01*
%TO.C,D1*%
D11*
X121766104Y-111630580D02*
X121766104Y-110630580D01*
X122004200Y-110630580D01*
X122147057Y-110678200D01*
X122242295Y-110773438D01*
X122289914Y-110868676D01*
X122337533Y-111059152D01*
X122337533Y-111202009D01*
X122289914Y-111392485D01*
X122242295Y-111487723D01*
X122147057Y-111582961D01*
X122004200Y-111630580D01*
X121766104Y-111630580D01*
X123289914Y-111630580D02*
X122718485Y-111630580D01*
X123004200Y-111630580D02*
X123004200Y-110630580D01*
X122908961Y-110773438D01*
X122813723Y-110868676D01*
X122718485Y-110916295D01*
%TO.C,J1*%
X151253866Y-116650580D02*
X151253866Y-117364866D01*
X151206247Y-117507723D01*
X151111009Y-117602961D01*
X150968152Y-117650580D01*
X150872914Y-117650580D01*
X152253866Y-117650580D02*
X151682438Y-117650580D01*
X151968152Y-117650580D02*
X151968152Y-116650580D01*
X151872914Y-116793438D01*
X151777676Y-116888676D01*
X151682438Y-116936295D01*
%TO.C,R1*%
X128789133Y-93881780D02*
X128455800Y-93405590D01*
X128217704Y-93881780D02*
X128217704Y-92881780D01*
X128598657Y-92881780D01*
X128693895Y-92929400D01*
X128741514Y-92977019D01*
X128789133Y-93072257D01*
X128789133Y-93215114D01*
X128741514Y-93310352D01*
X128693895Y-93357971D01*
X128598657Y-93405590D01*
X128217704Y-93405590D01*
X129741514Y-93881780D02*
X129170085Y-93881780D01*
X129455800Y-93881780D02*
X129455800Y-92881780D01*
X129360561Y-93024638D01*
X129265323Y-93119876D01*
X129170085Y-93167495D01*
%TD*%
M02*
