%TF.GenerationSoftware,KiCad,Pcbnew,(5.1.6)-1*%
%TF.CreationDate,2022-01-09T20:52:29+09:00*%
%TF.ProjectId,kicad_exam01,6b696361-645f-4657-9861-6d30312e6b69,rev?*%
%TF.SameCoordinates,Original*%
%TF.FileFunction,Copper,L2,Bot*%
%TF.FilePolarity,Positive*%
%FSLAX46Y46*%
G04 Gerber Fmt 4.6, Leading zero omitted, Abs format (unit mm)*
G04 Created by KiCad (PCBNEW (5.1.6)-1) date 2022-01-09 20:52:29*
%MOMM*%
%LPD*%
G01*
G04 APERTURE LIST*
%TA.AperFunction,ComponentPad*%
%ADD10R,1.800000X1.800000*%
%TD*%
%TA.AperFunction,ComponentPad*%
%ADD11C,1.800000*%
%TD*%
%TA.AperFunction,ComponentPad*%
%ADD12R,1.350000X1.350000*%
%TD*%
%TA.AperFunction,ComponentPad*%
%ADD13O,1.350000X1.350000*%
%TD*%
%TA.AperFunction,ComponentPad*%
%ADD14C,2.400000*%
%TD*%
%TA.AperFunction,ComponentPad*%
%ADD15O,2.400000X2.400000*%
%TD*%
%TA.AperFunction,Conductor*%
%ADD16C,0.250000*%
%TD*%
%TA.AperFunction,Conductor*%
%ADD17C,0.254000*%
%TD*%
G04 APERTURE END LIST*
D10*
%TO.P,D1,1*%
%TO.N,Net-(D1-Pad1)*%
X121234200Y-115138200D03*
D11*
%TO.P,D1,2*%
%TO.N,+5V*%
X123774200Y-115138200D03*
%TD*%
D12*
%TO.P,J1,1*%
%TO.N,+5V*%
X151587200Y-115138200D03*
D13*
%TO.P,J1,2*%
%TO.N,GND*%
X151587200Y-113138200D03*
%TD*%
D14*
%TO.P,R1,1*%
%TO.N,Net-(D1-Pad1)*%
X121335800Y-96799400D03*
D15*
%TO.P,R1,2*%
%TO.N,GND*%
X136575800Y-96799400D03*
%TD*%
D16*
%TO.N,GND*%
X151587200Y-113138200D02*
X151587200Y-107188000D01*
X151587200Y-107188000D02*
X141300200Y-96901000D01*
X136677400Y-96901000D02*
X136575800Y-96799400D01*
X141300200Y-96901000D02*
X136677400Y-96901000D01*
%TD*%
D17*
%TO.N,GND*%
G36*
X155752800Y-117805200D02*
G01*
X118643400Y-117805200D01*
X118643400Y-114238200D01*
X119696128Y-114238200D01*
X119696128Y-116038200D01*
X119708388Y-116162682D01*
X119744698Y-116282380D01*
X119803663Y-116392694D01*
X119883015Y-116489385D01*
X119979706Y-116568737D01*
X120090020Y-116627702D01*
X120209718Y-116664012D01*
X120334200Y-116676272D01*
X122134200Y-116676272D01*
X122258682Y-116664012D01*
X122378380Y-116627702D01*
X122488694Y-116568737D01*
X122585385Y-116489385D01*
X122664737Y-116392694D01*
X122723702Y-116282380D01*
X122729256Y-116264073D01*
X122795695Y-116330512D01*
X123047105Y-116498499D01*
X123326457Y-116614211D01*
X123623016Y-116673200D01*
X123925384Y-116673200D01*
X124221943Y-116614211D01*
X124501295Y-116498499D01*
X124752705Y-116330512D01*
X124966512Y-116116705D01*
X125134499Y-115865295D01*
X125250211Y-115585943D01*
X125309200Y-115289384D01*
X125309200Y-114987016D01*
X125250211Y-114690457D01*
X125156078Y-114463200D01*
X150274128Y-114463200D01*
X150274128Y-115813200D01*
X150286388Y-115937682D01*
X150322698Y-116057380D01*
X150381663Y-116167694D01*
X150461015Y-116264385D01*
X150557706Y-116343737D01*
X150668020Y-116402702D01*
X150787718Y-116439012D01*
X150912200Y-116451272D01*
X152262200Y-116451272D01*
X152386682Y-116439012D01*
X152506380Y-116402702D01*
X152616694Y-116343737D01*
X152713385Y-116264385D01*
X152792737Y-116167694D01*
X152851702Y-116057380D01*
X152888012Y-115937682D01*
X152900272Y-115813200D01*
X152900272Y-114463200D01*
X152888012Y-114338718D01*
X152851702Y-114219020D01*
X152792737Y-114108706D01*
X152713385Y-114012015D01*
X152619641Y-113935081D01*
X152716673Y-113801829D01*
X152824438Y-113568728D01*
X152855110Y-113467600D01*
X152731424Y-113265200D01*
X151714200Y-113265200D01*
X151714200Y-113285200D01*
X151460200Y-113285200D01*
X151460200Y-113265200D01*
X150442976Y-113265200D01*
X150319290Y-113467600D01*
X150349962Y-113568728D01*
X150457727Y-113801829D01*
X150554759Y-113935081D01*
X150461015Y-114012015D01*
X150381663Y-114108706D01*
X150322698Y-114219020D01*
X150286388Y-114338718D01*
X150274128Y-114463200D01*
X125156078Y-114463200D01*
X125134499Y-114411105D01*
X124966512Y-114159695D01*
X124752705Y-113945888D01*
X124501295Y-113777901D01*
X124221943Y-113662189D01*
X123925384Y-113603200D01*
X123623016Y-113603200D01*
X123326457Y-113662189D01*
X123047105Y-113777901D01*
X122795695Y-113945888D01*
X122729256Y-114012327D01*
X122723702Y-113994020D01*
X122664737Y-113883706D01*
X122585385Y-113787015D01*
X122488694Y-113707663D01*
X122378380Y-113648698D01*
X122258682Y-113612388D01*
X122134200Y-113600128D01*
X120334200Y-113600128D01*
X120209718Y-113612388D01*
X120090020Y-113648698D01*
X119979706Y-113707663D01*
X119883015Y-113787015D01*
X119803663Y-113883706D01*
X119744698Y-113994020D01*
X119708388Y-114113718D01*
X119696128Y-114238200D01*
X118643400Y-114238200D01*
X118643400Y-112808800D01*
X150319290Y-112808800D01*
X150442976Y-113011200D01*
X151460200Y-113011200D01*
X151460200Y-111993115D01*
X151714200Y-111993115D01*
X151714200Y-113011200D01*
X152731424Y-113011200D01*
X152855110Y-112808800D01*
X152824438Y-112707672D01*
X152716673Y-112474571D01*
X152565503Y-112266973D01*
X152376737Y-112092856D01*
X152157630Y-111958911D01*
X151916601Y-111870285D01*
X151714200Y-111993115D01*
X151460200Y-111993115D01*
X151257799Y-111870285D01*
X151016770Y-111958911D01*
X150797663Y-112092856D01*
X150608897Y-112266973D01*
X150457727Y-112474571D01*
X150349962Y-112707672D01*
X150319290Y-112808800D01*
X118643400Y-112808800D01*
X118643400Y-96618668D01*
X119500800Y-96618668D01*
X119500800Y-96980132D01*
X119571318Y-97334650D01*
X119709644Y-97668599D01*
X119910462Y-97969144D01*
X120166056Y-98224738D01*
X120466601Y-98425556D01*
X120800550Y-98563882D01*
X121155068Y-98634400D01*
X121516532Y-98634400D01*
X121871050Y-98563882D01*
X122204999Y-98425556D01*
X122505544Y-98224738D01*
X122761138Y-97969144D01*
X122961956Y-97668599D01*
X123100282Y-97334650D01*
X123124836Y-97211205D01*
X134787605Y-97211205D01*
X134860179Y-97450466D01*
X135020161Y-97772657D01*
X135239925Y-98057446D01*
X135511026Y-98293889D01*
X135823046Y-98472900D01*
X136163994Y-98587599D01*
X136448800Y-98471254D01*
X136448800Y-96926400D01*
X136702800Y-96926400D01*
X136702800Y-98471254D01*
X136987606Y-98587599D01*
X137328554Y-98472900D01*
X137640574Y-98293889D01*
X137911675Y-98057446D01*
X138131439Y-97772657D01*
X138291421Y-97450466D01*
X138363995Y-97211205D01*
X138247232Y-96926400D01*
X136702800Y-96926400D01*
X136448800Y-96926400D01*
X134904368Y-96926400D01*
X134787605Y-97211205D01*
X123124836Y-97211205D01*
X123170800Y-96980132D01*
X123170800Y-96618668D01*
X123124837Y-96387595D01*
X134787605Y-96387595D01*
X134904368Y-96672400D01*
X136448800Y-96672400D01*
X136448800Y-95127546D01*
X136702800Y-95127546D01*
X136702800Y-96672400D01*
X138247232Y-96672400D01*
X138363995Y-96387595D01*
X138291421Y-96148334D01*
X138131439Y-95826143D01*
X137911675Y-95541354D01*
X137640574Y-95304911D01*
X137328554Y-95125900D01*
X136987606Y-95011201D01*
X136702800Y-95127546D01*
X136448800Y-95127546D01*
X136163994Y-95011201D01*
X135823046Y-95125900D01*
X135511026Y-95304911D01*
X135239925Y-95541354D01*
X135020161Y-95826143D01*
X134860179Y-96148334D01*
X134787605Y-96387595D01*
X123124837Y-96387595D01*
X123100282Y-96264150D01*
X122961956Y-95930201D01*
X122761138Y-95629656D01*
X122505544Y-95374062D01*
X122204999Y-95173244D01*
X121871050Y-95034918D01*
X121516532Y-94964400D01*
X121155068Y-94964400D01*
X120800550Y-95034918D01*
X120466601Y-95173244D01*
X120166056Y-95374062D01*
X119910462Y-95629656D01*
X119709644Y-95930201D01*
X119571318Y-96264150D01*
X119500800Y-96618668D01*
X118643400Y-96618668D01*
X118643400Y-94462600D01*
X155752800Y-94462600D01*
X155752800Y-117805200D01*
G37*
X155752800Y-117805200D02*
X118643400Y-117805200D01*
X118643400Y-114238200D01*
X119696128Y-114238200D01*
X119696128Y-116038200D01*
X119708388Y-116162682D01*
X119744698Y-116282380D01*
X119803663Y-116392694D01*
X119883015Y-116489385D01*
X119979706Y-116568737D01*
X120090020Y-116627702D01*
X120209718Y-116664012D01*
X120334200Y-116676272D01*
X122134200Y-116676272D01*
X122258682Y-116664012D01*
X122378380Y-116627702D01*
X122488694Y-116568737D01*
X122585385Y-116489385D01*
X122664737Y-116392694D01*
X122723702Y-116282380D01*
X122729256Y-116264073D01*
X122795695Y-116330512D01*
X123047105Y-116498499D01*
X123326457Y-116614211D01*
X123623016Y-116673200D01*
X123925384Y-116673200D01*
X124221943Y-116614211D01*
X124501295Y-116498499D01*
X124752705Y-116330512D01*
X124966512Y-116116705D01*
X125134499Y-115865295D01*
X125250211Y-115585943D01*
X125309200Y-115289384D01*
X125309200Y-114987016D01*
X125250211Y-114690457D01*
X125156078Y-114463200D01*
X150274128Y-114463200D01*
X150274128Y-115813200D01*
X150286388Y-115937682D01*
X150322698Y-116057380D01*
X150381663Y-116167694D01*
X150461015Y-116264385D01*
X150557706Y-116343737D01*
X150668020Y-116402702D01*
X150787718Y-116439012D01*
X150912200Y-116451272D01*
X152262200Y-116451272D01*
X152386682Y-116439012D01*
X152506380Y-116402702D01*
X152616694Y-116343737D01*
X152713385Y-116264385D01*
X152792737Y-116167694D01*
X152851702Y-116057380D01*
X152888012Y-115937682D01*
X152900272Y-115813200D01*
X152900272Y-114463200D01*
X152888012Y-114338718D01*
X152851702Y-114219020D01*
X152792737Y-114108706D01*
X152713385Y-114012015D01*
X152619641Y-113935081D01*
X152716673Y-113801829D01*
X152824438Y-113568728D01*
X152855110Y-113467600D01*
X152731424Y-113265200D01*
X151714200Y-113265200D01*
X151714200Y-113285200D01*
X151460200Y-113285200D01*
X151460200Y-113265200D01*
X150442976Y-113265200D01*
X150319290Y-113467600D01*
X150349962Y-113568728D01*
X150457727Y-113801829D01*
X150554759Y-113935081D01*
X150461015Y-114012015D01*
X150381663Y-114108706D01*
X150322698Y-114219020D01*
X150286388Y-114338718D01*
X150274128Y-114463200D01*
X125156078Y-114463200D01*
X125134499Y-114411105D01*
X124966512Y-114159695D01*
X124752705Y-113945888D01*
X124501295Y-113777901D01*
X124221943Y-113662189D01*
X123925384Y-113603200D01*
X123623016Y-113603200D01*
X123326457Y-113662189D01*
X123047105Y-113777901D01*
X122795695Y-113945888D01*
X122729256Y-114012327D01*
X122723702Y-113994020D01*
X122664737Y-113883706D01*
X122585385Y-113787015D01*
X122488694Y-113707663D01*
X122378380Y-113648698D01*
X122258682Y-113612388D01*
X122134200Y-113600128D01*
X120334200Y-113600128D01*
X120209718Y-113612388D01*
X120090020Y-113648698D01*
X119979706Y-113707663D01*
X119883015Y-113787015D01*
X119803663Y-113883706D01*
X119744698Y-113994020D01*
X119708388Y-114113718D01*
X119696128Y-114238200D01*
X118643400Y-114238200D01*
X118643400Y-112808800D01*
X150319290Y-112808800D01*
X150442976Y-113011200D01*
X151460200Y-113011200D01*
X151460200Y-111993115D01*
X151714200Y-111993115D01*
X151714200Y-113011200D01*
X152731424Y-113011200D01*
X152855110Y-112808800D01*
X152824438Y-112707672D01*
X152716673Y-112474571D01*
X152565503Y-112266973D01*
X152376737Y-112092856D01*
X152157630Y-111958911D01*
X151916601Y-111870285D01*
X151714200Y-111993115D01*
X151460200Y-111993115D01*
X151257799Y-111870285D01*
X151016770Y-111958911D01*
X150797663Y-112092856D01*
X150608897Y-112266973D01*
X150457727Y-112474571D01*
X150349962Y-112707672D01*
X150319290Y-112808800D01*
X118643400Y-112808800D01*
X118643400Y-96618668D01*
X119500800Y-96618668D01*
X119500800Y-96980132D01*
X119571318Y-97334650D01*
X119709644Y-97668599D01*
X119910462Y-97969144D01*
X120166056Y-98224738D01*
X120466601Y-98425556D01*
X120800550Y-98563882D01*
X121155068Y-98634400D01*
X121516532Y-98634400D01*
X121871050Y-98563882D01*
X122204999Y-98425556D01*
X122505544Y-98224738D01*
X122761138Y-97969144D01*
X122961956Y-97668599D01*
X123100282Y-97334650D01*
X123124836Y-97211205D01*
X134787605Y-97211205D01*
X134860179Y-97450466D01*
X135020161Y-97772657D01*
X135239925Y-98057446D01*
X135511026Y-98293889D01*
X135823046Y-98472900D01*
X136163994Y-98587599D01*
X136448800Y-98471254D01*
X136448800Y-96926400D01*
X136702800Y-96926400D01*
X136702800Y-98471254D01*
X136987606Y-98587599D01*
X137328554Y-98472900D01*
X137640574Y-98293889D01*
X137911675Y-98057446D01*
X138131439Y-97772657D01*
X138291421Y-97450466D01*
X138363995Y-97211205D01*
X138247232Y-96926400D01*
X136702800Y-96926400D01*
X136448800Y-96926400D01*
X134904368Y-96926400D01*
X134787605Y-97211205D01*
X123124836Y-97211205D01*
X123170800Y-96980132D01*
X123170800Y-96618668D01*
X123124837Y-96387595D01*
X134787605Y-96387595D01*
X134904368Y-96672400D01*
X136448800Y-96672400D01*
X136448800Y-95127546D01*
X136702800Y-95127546D01*
X136702800Y-96672400D01*
X138247232Y-96672400D01*
X138363995Y-96387595D01*
X138291421Y-96148334D01*
X138131439Y-95826143D01*
X137911675Y-95541354D01*
X137640574Y-95304911D01*
X137328554Y-95125900D01*
X136987606Y-95011201D01*
X136702800Y-95127546D01*
X136448800Y-95127546D01*
X136163994Y-95011201D01*
X135823046Y-95125900D01*
X135511026Y-95304911D01*
X135239925Y-95541354D01*
X135020161Y-95826143D01*
X134860179Y-96148334D01*
X134787605Y-96387595D01*
X123124837Y-96387595D01*
X123100282Y-96264150D01*
X122961956Y-95930201D01*
X122761138Y-95629656D01*
X122505544Y-95374062D01*
X122204999Y-95173244D01*
X121871050Y-95034918D01*
X121516532Y-94964400D01*
X121155068Y-94964400D01*
X120800550Y-95034918D01*
X120466601Y-95173244D01*
X120166056Y-95374062D01*
X119910462Y-95629656D01*
X119709644Y-95930201D01*
X119571318Y-96264150D01*
X119500800Y-96618668D01*
X118643400Y-96618668D01*
X118643400Y-94462600D01*
X155752800Y-94462600D01*
X155752800Y-117805200D01*
%TD*%
M02*
